<?xml version="1.0" encoding="UTF-8"?>
<svg version="1.1" xmlns="http://www.w3.org/2000/svg" width="1024" height="1024">
<path d="M0 0 C2.47750294 2.17663677 4.80842849 4.42396179 7.10546875 6.7890625 C7.6778125 7.34078125 8.25015625 7.8925 8.83984375 8.4609375 C18.31280681 18.32453821 21.583179 32.17633751 21.45800781 45.41455078 C20.8900162 67.43077951 12.24986966 88.22758215 5.10546875 108.7890625 C4.69699707 109.97048828 4.28852539 111.15191406 3.86767578 112.36914062 C1.97113473 117.85121143 0.05476906 123.32553065 -1.89453125 128.7890625 C11.48233535 103.4902151 21.94789795 76.60535782 31.6640625 49.73046875 C43.37600893 17.41828297 43.37600893 17.41828297 50.10546875 9.7890625 C50.76546875 9.7890625 51.42546875 9.7890625 52.10546875 9.7890625 C52.10546875 9.1290625 52.10546875 8.4690625 52.10546875 7.7890625 C67.02759018 -5.46636474 82.76890499 -9.37510452 102.36132812 -8.45361328 C116.53178157 -7.20046108 129.03261028 -0.29143776 138.7734375 9.87890625 C148.16665838 21.6007648 151.37099766 34.9853173 150.10546875 49.7890625 C149.09963975 55.5328111 147.63072212 61.16469069 146.10546875 66.7890625 C148.64560784 67.6066132 151.18740106 68.41821436 153.73046875 69.2265625 C154.44332031 69.45666016 155.15617187 69.68675781 155.890625 69.92382812 C159.11260528 70.94362922 162.13474952 71.79363233 165.484375 72.31640625 C169.24341652 72.9942662 170.51263034 75.01532839 173.10546875 77.7890625 C174.61116317 78.97520307 176.13334205 80.14060004 177.66796875 81.2890625 C181.00780221 83.83290232 183.68426781 86.3151655 186.10546875 89.7890625 C189.19578928 89.14362827 189.19578928 89.14362827 190.09375 86.91015625 C190.42761719 86.21019531 190.76148438 85.51023437 191.10546875 84.7890625 C195.68365051 80.06592512 201.8757003 74.86565198 208.10546875 72.7890625 C208.79382813 72.551875 209.4821875 72.3146875 210.19140625 72.0703125 C210.94679688 71.8125 211.7021875 71.5546875 212.48046875 71.2890625 C213.23070312 71.03125 213.9809375 70.7734375 214.75390625 70.5078125 C228.54064426 66.2939258 243.35351461 68.57883876 255.98046875 75.1015625 C260.88060592 77.8931558 265.02930529 80.90248804 269.10546875 84.7890625 C270.01190555 81.69141328 270.37069768 78.6139166 270.69995117 75.40942383 C272.98187247 53.87043771 281.86047839 36.72026142 298.54296875 22.9140625 C312.25486351 12.89289164 328.63945231 8.10006209 345.52099609 10.54467773 C353.15090659 11.82026388 360.45214764 13.65800451 367.10546875 17.7890625 C367.43546875 18.4490625 367.76546875 19.1090625 368.10546875 19.7890625 C368.97171875 20.19125 368.97171875 20.19125 369.85546875 20.6015625 C372.83435843 22.17375427 374.84215068 24.35256179 377.10546875 26.7890625 C377.72808594 27.418125 378.35070312 28.0471875 378.9921875 28.6953125 C387.29472013 37.42483253 391.3306822 46.99481953 393.81347656 58.62133789 C394.19032112 60.35648166 394.64166916 62.07511219 395.10546875 63.7890625 C395.76546875 64.1190625 396.42546875 64.4490625 397.10546875 64.7890625 C397.10546875 66.1090625 397.10546875 67.4290625 397.10546875 68.7890625 C397.79511719 68.6446875 398.48476563 68.5003125 399.1953125 68.3515625 C405.29348795 67.14698463 410.8931032 66.58537838 417.10546875 66.7890625 C417.43546875 66.1290625 417.76546875 65.4690625 418.10546875 64.7890625 C444.48645716 67.54990359 464.20197917 73.84617697 483.10546875 92.7890625 C483.83805908 93.51923584 483.83805908 93.51923584 484.58544922 94.26416016 C485.76084018 95.43707574 486.93346725 96.61276008 488.10546875 97.7890625 C488.71390625 97.18320312 489.32234375 96.57734375 489.94921875 95.953125 C509.06230453 77.68326359 533.09362478 67.09071603 559.65673828 67.31420898 C570.99595728 67.65493298 581.08151577 70.17466386 591.0546875 75.73828125 C595.72798851 78.13279167 598.45744586 77.65036233 603.54296875 76.3515625 C617.97081189 73.13212643 632.15017324 74.24632165 645.04296875 82.0390625 C656.11573531 89.79820114 663.90968833 99.48387547 667.04296875 112.8515625 C671.67579042 139.20972804 660.29391079 165.93612173 650.10546875 189.7890625 C650.6778125 189.89476562 651.25015625 190.00046875 651.83984375 190.109375 C660.47995756 192.70140914 666.7979372 201.3408251 671.10546875 208.7890625 C678.36948539 224.13557653 676.14996724 241.86417087 670.93554688 257.47802734 C662.43757622 281.13737742 646.81336046 299.52186495 624 310.50390625 C609.53271784 316.92730143 591.23702671 318.50632237 575.953125 313.91015625 C568.65179874 311.03569722 561.24664106 307.72608338 555.10546875 302.7890625 C554.23063843 303.22714233 554.23063843 303.22714233 553.33813477 303.67407227 C528.93227774 315.86232257 504.95107168 321.29898321 478.203125 312.875 C475.76797489 311.9519693 473.44472826 310.9319696 471.10546875 309.7890625 C470.36167969 309.43070313 469.61789062 309.07234375 468.8515625 308.703125 C462.66570373 305.49723646 457.42146943 301.26160587 452.10546875 296.7890625 C446.39509457 299.88189112 446.39509457 299.88189112 440.84375 303.24609375 C417.30547653 318.39211352 386.61104469 320.72832247 359.65869141 315.29589844 C351.87877704 313.57727677 344.47906919 311.61331313 337.36279297 307.98852539 C332.06208716 305.19108324 332.06208716 305.19108324 326.328125 305.5703125 C323.62763461 307.07724807 323.62763461 307.07724807 321.03515625 308.9140625 C317.57357658 311.12947349 314.1865824 312.35825168 310.29296875 313.6015625 C309.06964844 313.99988281 307.84632813 314.39820313 306.5859375 314.80859375 C291.21116891 319.13975752 271.7013045 318.62570475 257.4375 310.89453125 C255.25223786 309.64263531 253.09237745 308.34430003 250.97265625 306.984375 C248.11664672 305.47216553 248.11664672 305.47216553 244.96484375 306.4765625 C242.76039421 307.48844098 240.60187666 308.49196041 238.48046875 309.6640625 C226.91135625 315.6043568 215.72570371 316.96954456 202.91796875 316.9765625 C201.73009766 316.98880859 200.54222656 317.00105469 199.31835938 317.01367188 C197.61389648 317.01657227 197.61389648 317.01657227 195.875 317.01953125 C194.83964111 317.02364014 193.80428223 317.02774902 192.73754883 317.03198242 C190.10546875 316.7890625 190.10546875 316.7890625 187.10546875 314.7890625 C185.2622973 314.17186658 183.4061535 313.59291664 181.54296875 313.0390625 C175.45647213 311.07163563 170.44223105 308.25749554 165.10546875 304.7890625 C163.44210464 303.78357873 161.77628112 302.7821203 160.10546875 301.7890625 C159.25726563 302.30855469 158.4090625 302.82804687 157.53515625 303.36328125 C137.71246068 315.26604137 115.94348728 319.86159943 93.10546875 314.7890625 C83.12659801 312.0542553 73.18725227 308.41466881 65.10546875 301.7890625 C64.67878906 302.65402344 64.25210938 303.51898437 63.8125 304.41015625 C61.59823801 308.8806078 59.35342813 313.33548125 57.10546875 317.7890625 C56.38206299 319.22717285 56.38206299 319.22717285 55.64404297 320.69433594 C40.39755542 350.89772913 23.15566365 379.86482935 -4.89453125 399.7890625 C-5.4575293 400.18963867 -6.02052734 400.59021484 -6.60058594 401.00292969 C-32.88997704 419.40398647 -64.12848125 427.27467895 -95.89453125 421.7890625 C-120.24053954 416.92472518 -142.19102425 404.41832317 -156.79296875 384.01171875 C-168.85365796 365.51716746 -173.71354407 343.51536836 -169.48095703 321.65283203 C-163.99559182 297.62353488 -149.46603811 278.95345967 -129.20703125 265.2265625 C-128.06234375 264.515 -128.06234375 264.515 -126.89453125 263.7890625 C-127.17604212 262.47434682 -127.47006464 261.16230483 -127.76953125 259.8515625 C-128.01316406 258.75521484 -128.01316406 258.75521484 -128.26171875 257.63671875 C-128.72414648 255.58205956 -128.72414648 255.58205956 -130.89453125 254.7890625 C-131.83553072 252.08067299 -132.64914192 249.42714848 -133.39453125 246.6640625 C-133.72553833 245.44650269 -133.72553833 245.44650269 -134.06323242 244.2043457 C-138.20309167 228.43279254 -138.37507523 213.05181943 -137.015625 196.90625 C-136.70965833 193.75565583 -136.70965833 193.75565583 -137.89453125 190.7890625 C-140.01017946 190.34545884 -142.12654549 189.90504703 -144.24609375 189.48046875 C-156.67087165 186.23683204 -167.85256692 175.82265728 -174.89453125 165.3515625 C-185.68192024 146.64092999 -186.81428716 126.91452227 -181.38525391 106.32055664 C-176.79889131 90.71853982 -167.88947507 76.49060172 -157.89453125 63.7890625 C-157.40710449 63.15645508 -156.91967773 62.52384766 -156.41748047 61.87207031 C-143.05156311 44.60653871 -127.69094089 28.51588671 -109.89453125 15.7890625 C-109.28754395 15.34304688 -108.68055664 14.89703125 -108.05517578 14.4375 C-77.72252316 -7.80903447 -33.96051698 -25.94015197 0 0 Z M-3.89453125 131.7890625 C-2.89453125 133.7890625 -2.89453125 133.7890625 -2.89453125 133.7890625 Z M-136.89453125 190.7890625 C-135.89453125 192.7890625 -135.89453125 192.7890625 -135.89453125 192.7890625 Z " fill="#000000" transform="translate(274.89453125,287.2109375)"/>
<path d="M0 0 C1.19447754 -0.02114868 1.19447754 -0.02114868 2.41308594 -0.04272461 C10.76558256 0.02586658 17.35390633 2.41640633 23.3125 8.375 C28.42305369 16.86412975 27.26561211 27.25887587 25.07861328 36.6015625 C23.95341457 40.90105598 22.65100494 45.1376679 21.3125 49.375 C20.95784668 50.50486328 20.60319336 51.63472656 20.23779297 52.79882812 C13.52309559 73.96333182 5.78312896 94.72160661 -2.08024597 115.48091125 C-17.59281914 151.59452873 -17.59281914 151.59452873 -16.734375 189.53515625 C-15.37557012 191.92320512 -14.05871093 192.99179362 -11.6875 194.375 C-3.37583383 196.01546043 4.09324976 193.36739074 11.3125 189.375 C14.8731625 186.94126337 18.09136761 184.23822879 21.3125 181.375 C22.12332031 180.6840625 22.93414062 179.993125 23.76953125 179.28125 C40.78503931 164.48981622 54.48942436 146.09166434 65.3125 126.375 C65.76302734 125.55612305 66.21355469 124.73724609 66.67773438 123.89355469 C82.99276265 93.97540871 95.07097678 62.15368663 106.97265625 30.28515625 C107.52046753 28.82190918 107.52046753 28.82190918 108.0793457 27.32910156 C108.70415057 25.65033606 109.32199262 23.96894998 109.93041992 22.28417969 C112.35761297 15.7300951 115.36262543 10.34158305 121.3125 6.375 C125.97718036 4.46951564 130.26478048 4.03891807 135.25 4.0625 C136.26610352 4.03833008 136.26610352 4.03833008 137.30273438 4.01367188 C143.80889577 4.00743394 148.31009356 5.59024643 153.1875 9.9375 C156.7723898 14.04957948 156.61449813 16.99243881 156.55838013 22.30706787 C156.15533088 27.33605401 154.58336109 31.78945986 152.87109375 36.5078125 C152.51107773 37.54173126 152.15106171 38.57565002 151.78013611 39.64089966 C150.64223997 42.89228999 149.47969397 46.13402512 148.3125 49.375 C147.58949702 51.40834756 146.86699455 53.44187316 146.14501953 55.47558594 C144.30052303 60.6492029 142.4333444 65.81437345 140.56057739 70.97781372 C130.77470163 97.98677037 121.443159 125.13848738 112.3125 152.375 C112.02524048 153.23160217 111.73798096 154.08820435 111.4420166 154.97076416 C106.97451931 168.29787313 102.5296154 181.63256281 98.13650513 194.98439026 C66.54412675 290.96510084 66.54412675 290.96510084 42.3125 322.375 C41.59707031 323.3134375 40.88164062 324.251875 40.14453125 325.21875 C23.8941688 345.8203024 1.33054169 365.12199164 -25.6875 368.375 C-46.94543003 370.09529492 -65.83894198 366.88201859 -82.5625 352.6875 C-92.28768299 343.33090995 -97.50638717 332.00659402 -98.08740234 318.5637207 C-98.37044089 303.02784536 -92.71792485 289.93781533 -82.1484375 278.68359375 C-77.40180533 274.23080071 -72.14324512 270.15873113 -65.4375 269.75 C-60.31405616 270.60390731 -57.21975311 272.34439272 -54.078125 276.5078125 C-52.31440022 280.1442563 -52.05003507 283.59721899 -51.75 287.5625 C-50.89392346 296.15537979 -49.85114438 303.89248416 -43.125 309.9375 C-37.10908773 314.66715931 -29.99682243 313.90520992 -22.6875 313.375 C-14.10067252 311.65556289 -7.45166889 307.8108915 -0.6875 302.375 C0.07304687 301.77816406 0.83359375 301.18132812 1.6171875 300.56640625 C33.15882551 274.31808811 47.68159682 222.54234037 58.3125 184.375 C57.65765625 185.23480469 57.0028125 186.09460938 56.328125 186.98046875 C42.881789 204.46743994 28.46740244 220.15408082 9.3125 231.375 C8.46042969 231.87902344 7.60835938 232.38304687 6.73046875 232.90234375 C-6.16636858 239.93892664 -21.44290546 242.69248351 -35.890625 239.71484375 C-47.36632234 236.01248888 -54.33542238 228.54771341 -59.87109375 218.15234375 C-76.85982959 182.86804623 -54.24094288 134.39998471 -42.43145752 100.49499512 C-37.89296987 87.56203672 -33.26741529 74.65987256 -27.62084961 62.1640625 C-26.58990359 59.08335956 -26.51883359 56.60197225 -26.6875 53.375 C-29.84149372 52.80889856 -31.97253668 52.9419365 -34.73828125 54.6171875 C-37.12872525 56.45990987 -39.40878954 58.39592517 -41.6875 60.375 C-42.84765625 61.30119141 -42.84765625 61.30119141 -44.03125 62.24609375 C-61.81101138 77.05294048 -72.48596881 97.49544054 -78.6875 119.375 C-82.3301465 131.27337429 -82.3301465 131.27337429 -87.6875 134.375 C-91.14840891 136.10545446 -94.89660888 135.72079074 -98.6875 135.375 C-105.19227456 133.12334727 -108.36683812 128.8341635 -111.5 123 C-115.96105503 109.69331015 -112.01117162 94.60470835 -106.125 82.5 C-99.47581736 69.45111465 -90.29817557 58.33303352 -80.6875 47.375 C-79.49253906 45.99441406 -79.49253906 45.99441406 -78.2734375 44.5859375 C-73.71760933 39.40387865 -68.98331352 34.7866102 -63.6875 30.375 C-62.82769531 29.61574219 -61.96789062 28.85648437 -61.08203125 28.07421875 C-44.05698155 13.30079505 -23.02551591 0.29854443 0 0 Z " fill="#FDFDFD" transform="translate(235.6875,308.625)"/>
<path d="M0 0 C3.75941396 3.23823827 7.1752031 6.81748124 10.11328125 10.8203125 C10.11328125 11.4803125 10.11328125 12.1403125 10.11328125 12.8203125 C10.83515625 12.0984375 11.55703125 11.3765625 12.30078125 10.6328125 C13.22890625 9.7046875 14.15703125 8.7765625 15.11328125 7.8203125 C15.93828125 6.9540625 16.76328125 6.0878125 17.61328125 5.1953125 C22.68125274 0.38073958 27.15453206 -1.35585837 34.11328125 -1.1796875 C40.68261092 -0.0716078 45.46252883 2.05329127 50.11328125 6.8203125 C53.03518709 11.6835933 52.87189108 16.30674576 52.11328125 21.8203125 C50.4813994 27.86359398 48.00483535 33.64602654 45.67578125 39.4453125 C45.02841675 41.0985938 44.38325345 42.75273861 43.74023438 44.40771484 C42.46196031 47.69610297 41.17707293 50.98176792 39.88720703 54.265625 C33.64989747 70.20814005 27.92518532 86.38860617 23.11328125 102.8203125 C22.90300293 103.53010254 22.69272461 104.23989258 22.47607422 104.97119141 C19.94174109 113.67781962 17.57905411 122.71170272 19.11328125 131.8203125 C20.29544902 133.73765447 20.29544902 133.73765447 22.11328125 134.8203125 C27.19306125 134.99250843 30.14958111 134.20535363 34.11328125 131.0078125 C38.29775416 127.04574268 41.25119631 122.38089707 44.25390625 117.4921875 C46.043984 114.9198909 47.44170802 113.41791329 50.11328125 111.8203125 C53.66400891 111.30249805 55.35074046 111.25807681 58.26953125 113.41015625 C61.97736584 118.25705019 60.6751961 125.01768159 60.11328125 130.8203125 C56.86518072 146.07543635 47.83096617 159.62351595 35.08203125 168.578125 C25.9225096 174.357347 17.0078395 176.918106 6.11328125 175.8203125 C-2.60017463 173.75334214 -8.50710633 168.91081704 -13.19921875 161.3828125 C-16.45835384 154.50241621 -17.18042517 148.308282 -17.01171875 140.8203125 C-17.00269531 140.04558594 -16.99367188 139.27085937 -16.984375 138.47265625 C-16.96111263 136.58840407 -16.92525515 134.70431418 -16.88671875 132.8203125 C-17.43199219 133.57054687 -17.97726562 134.32078125 -18.5390625 135.09375 C-31.77772462 153.06212218 -47.81680727 171.61866573 -70.88671875 175.8203125 C-82.36811404 177.01156399 -92.0784958 175.82010123 -101.63671875 168.80078125 C-113.73851546 158.51785577 -119.68113379 145.08571275 -121.109375 129.37036133 C-122.94002505 90.30728781 -106.00894604 52.03755486 -80.88671875 22.8203125 C-80.26539063 22.05332031 -79.6440625 21.28632813 -79.00390625 20.49609375 C-61.20191866 -0.84394577 -25.58941027 -18.6189859 0 0 Z " fill="#FDFDFD" transform="translate(857.88671875,395.1796875)"/>
<path d="M0 0 C6.93125727 5.89008129 11.37589623 11.54636673 12.3125 20.8125 C12.91507972 29.54990596 11.00180326 37.27094733 5.5 44.1875 C4.88705078 45.04794922 4.88705078 45.04794922 4.26171875 45.92578125 C0.3348976 51.09148682 -4.34153284 54.1379309 -10.5 56.1875 C-14.375 56.3125 -14.375 56.3125 -17.5 55.1875 C-20.48409616 52.30018533 -21.43583688 50.72450484 -21.93359375 46.55859375 C-21.9362005 43.93359504 -21.93619533 41.30859246 -21.93359375 38.68359375 C-22.18479454 35.06951342 -22.18479454 35.06951342 -24.78125 32.7578125 C-28.91192332 30.37199257 -31.85326064 30.37815801 -36.5 31.1875 C-44.95317613 33.83862465 -52.37646359 37.0577564 -56.875 45 C-58.81598957 49.33052715 -59.10878213 52.46943848 -58.5 57.1875 C-54.40805887 66.0830242 -44.29972076 69.96673744 -35.75 73.5625 C-21.12434439 79.94997044 -8.03973222 86.29765532 -1.4453125 101.5390625 C3.07475333 114.20271801 0.33993658 128.43142901 -5.11450195 140.36450195 C-13.20115103 156.95395286 -26.30264831 167.64680108 -43.5 174.1875 C-61.70893261 180.37386813 -81.26283637 178.01500426 -98.5 170.1875 C-106.82276885 165.82583504 -113.13815748 160.04614584 -119.5 153.1875 C-122.75283201 154.59897116 -124.72954548 156.28077373 -127.125 158.875 C-137.68156733 169.64621103 -150.08230417 176.17399749 -165.25 176.5 C-174.23302463 176.41480799 -181.37889161 174.09250462 -187.97265625 167.87109375 C-195.87671505 159.15843559 -197.74585064 149.13642912 -198 137.6875 C-198.0306958 136.93629883 -198.0613916 136.18509766 -198.09301758 135.41113281 C-198.09826431 118.36275731 -190.22019139 100.70137139 -184.9375 84.75 C-184.229111 82.59835137 -183.52110819 80.44657556 -182.81347656 78.29467773 C-181.04890225 72.93400188 -179.277112 67.57574402 -177.50286865 62.21826172 C-176.25699144 58.45310568 -175.01597709 54.68635724 -173.77503967 50.91957092 C-172.68864004 47.6244951 -171.59888634 44.33053884 -170.50759888 41.03707886 C-170.00981544 39.53434435 -169.51278304 38.03136082 -169.01657104 36.52810669 C-160.24642154 9.99002851 -160.24642154 9.99002851 -150.0625 4.25 C-142.7284776 2.06265999 -136.33936702 2.90264272 -129.5 6.1875 C-126.02119789 8.48906489 -123.31582443 10.96376336 -121 14.4375 C-119.5750483 22.27473434 -122.07037433 29.75978672 -124.875 37 C-125.22296631 37.92941406 -125.57093262 38.85882813 -125.92944336 39.81640625 C-127.10525794 42.94576778 -128.30019432 46.06726089 -129.5 49.1875 C-146.80582162 87.89353502 -146.80582162 87.89353502 -151.5 129.1875 C-149.03003576 131.65746424 -148.16102667 131.51081778 -144.75 131.5625 C-138.74502591 131.39904082 -135.7914335 129.54980258 -131.60546875 125.234375 C-127.49149706 120.73496428 -123.71353866 115.9978434 -120.04296875 111.1328125 C-116.77712188 107.01536506 -115.02796727 105.83295382 -109.6328125 105.0078125 C-106.51187547 105.27074859 -104.98713197 106.27698286 -102.5 108.1875 C-100.8445558 110.48502205 -99.37130493 112.70029323 -97.9375 115.125 C-95.45378367 119.25594789 -92.96132721 122.80466094 -89.5 126.1875 C-89.5 126.8475 -89.5 127.5075 -89.5 128.1875 C-88.91992188 128.47625 -88.33984375 128.765 -87.7421875 129.0625 C-86.34728871 129.76237953 -84.9559409 130.46944156 -83.5703125 131.1875 C-82.92835938 131.5175 -82.28640625 131.8475 -81.625 132.1875 C-80.98820313 132.5175 -80.35140625 132.8475 -79.6953125 133.1875 C-71.78728546 136.78973296 -63.24585431 137.70604721 -54.765625 135.46484375 C-49.59068449 133.32019559 -45.07680479 130.34110958 -42.5 125.1875 C-42.32544305 123.2759583 -42.23284854 121.35645944 -42.1875 119.4375 C-42.15011719 118.41140625 -42.11273437 117.3853125 -42.07421875 116.328125 C-42.620831 112.29623281 -43.91185396 110.31127229 -46.5 107.1875 C-49.28618751 105.07766974 -49.28618751 105.07766974 -52.5625 103.375 C-53.16102783 103.04371094 -53.75955566 102.71242188 -54.3762207 102.37109375 C-59.53534138 99.5704469 -64.85730727 97.14070475 -70.1875 94.6875 C-82.27789311 89.09056126 -93.84205644 82.172705 -99.9375 69.8125 C-103.85963371 58.72820909 -102.43174084 46.03374316 -98.046875 35.3671875 C-88.04791059 14.81376065 -71.53988256 2.64508853 -50.43359375 -4.91015625 C-35.00947397 -9.23373611 -13.56791176 -9.47721177 0 0 Z " fill="#FDFDFD" transform="translate(725.5,394.8125)"/>
<path d="M0 0 C4.62031311 2.7048083 7.8502189 6.2381567 9.5625 11.375 C10.34702449 28.85347594 0.83225831 45.36425492 -6.06568909 60.98097229 C-20.11999578 91.72042309 -20.11999578 91.72042309 -25.75 124.625 C-25.76675781 125.59953125 -25.78351563 126.5740625 -25.80078125 127.578125 C-25.37587486 130.84944728 -24.36943044 132.72388378 -22.4375 135.375 C-18.79810487 137.19469757 -15.19728136 136.44762708 -11.4375 135.375 C16.74394889 119.84892199 29.71186261 81.7267642 40.25 53.5 C56.97421164 8.85656636 56.97421164 8.85656636 68.1875 2.375 C74.6089301 -0.4778944 81.15372596 -0.86382907 87.92578125 1.0390625 C92.9168188 3.20090551 96.41853243 6.35126867 98.5625 11.375 C99.53853521 19.06466899 97.96881274 25.69252195 95.375 32.875 C95.02550293 33.885625 94.67600586 34.89625 94.31591797 35.9375 C91.61784488 43.64955919 88.73017692 51.29086396 85.85546875 58.93823242 C85.5812207 59.66787201 85.30697266 60.3975116 85.02441406 61.14926147 C84.46618284 62.63385444 83.90742572 64.11824977 83.34814453 65.60244751 C79.19083815 76.65805014 75.36961841 87.77975237 71.875 99.0625 C71.66667542 99.73385986 71.45835083 100.40521973 71.24371338 101.09692383 C69.98204425 105.17978151 68.75748525 109.27216282 67.5625 113.375 C67.33054932 114.15721924 67.09859863 114.93943848 66.85961914 115.74536133 C65.55258588 120.46689678 65.28791253 124.83351941 65.375 129.6875 C65.37564453 130.38939453 65.37628906 131.09128906 65.37695312 131.81445312 C65.40367385 134.9289026 65.5710301 137.40059029 66.5625 140.375 C72.0799944 141.0646868 75.60769702 140.81752427 80.125 137.375 C81.28830245 136.39537689 82.44077726 135.40197231 83.5625 134.375 C87.40610275 135.83291829 88.825525 137.68392813 90.5625 141.375 C92.26153257 151.13027868 89.34489267 159.91527133 83.80078125 167.91796875 C77.84908771 175.12519196 69.90164077 180.79209478 60.5625 182.375 C50.32230643 183.23733209 42.88708965 181.7907745 34.25 176.25 C27.38054824 168.90128416 25.3867722 160.84451155 25.4375 151.0625 C25.43363281 150.32837891 25.42976563 149.59425781 25.42578125 148.83789062 C25.43392362 144.24966297 25.80911045 139.90131661 26.5625 135.375 C25.87285156 136.26960937 25.18320312 137.16421875 24.47265625 138.0859375 C10.9125314 155.57934834 -6.77465651 178.37135733 -30.4375 181.375 C-41.52402077 182.14522144 -51.03019519 181.74212862 -60.1875 174.75 C-69.31966424 166.13475071 -72.43106951 154.64514013 -72.9375 142.4375 C-72.75179807 136.33580689 -71.81238908 130.74727795 -70.3671875 124.82421875 C-70.14735199 123.91549011 -69.92751648 123.00676147 -69.70101929 122.07049561 C-67.00958531 111.25652322 -63.57013073 100.69664439 -60.0625 90.125 C-59.71767578 89.07804962 -59.37285156 88.03109924 -59.01757812 86.9524231 C-54.03359652 71.83115435 -48.85939956 56.78232151 -43.4375 41.8125 C-43.14079407 40.98512329 -42.84408813 40.15774658 -42.53839111 39.30529785 C-39.49941304 30.86206837 -36.24926669 22.5953393 -32.30078125 14.53125 C-31.98661255 13.8802684 -31.67244385 13.2292868 -31.34875488 12.55857849 C-25.2359364 0.49702601 -13.06866246 -6.01058713 0 0 Z " fill="#FDFDFD" transform="translate(426.4375,389.625)"/>
<path d="M0 0 C4.43811281 3.13915296 6.91492934 6.67179669 8.5625 11.8125 C10.81223975 40.12415996 -4.34691671 71.50402426 -22.0234375 93.13671875 C-33.80648482 106.19721618 -33.80648482 106.19721618 -42.26171875 107.12109375 C-46.99971639 107.313411 -50.54786737 107.19377113 -54.9375 105.3125 C-61.65661353 98.59338647 -63.43449263 89.53587973 -63.8125 80.3125 C-63.25683315 52.98063682 -47.59045444 26.70973989 -29.4375 7.25 C-21.23886557 -0.61608451 -11.01347959 -3.80465659 0 0 Z " fill="#000000" transform="translate(844.4375,424.1875)"/>
<path d="M0 0 C5.49765525 3.3387048 9.48514884 7.19307031 11.5 13.375 C12.61543882 21.93534445 10.89829501 28.47135946 6.02734375 35.5 C0.37806093 42.55158707 -7.52419962 47.82744821 -16.5 49.375 C-25.96154544 50.22547599 -32.84104448 49.0211391 -40.375 43.125 C-44.17562227 38.20654765 -45.83419334 33.76121056 -45.5 27.5 C-44.10605195 17.93311447 -39.06889682 10.26773974 -31.5 4.375 C-22.16167229 -1.19474442 -10.51492725 -4.92057761 0 0 Z " fill="#FDFDFD" transform="translate(624.5,332.625)"/>
<path d="M0 0 C0.66 0.66 1.32 1.32 2 2 C1.34 2 0.68 2 0 2 C0 1.34 0 0.68 0 0 Z " fill="#181917" transform="translate(899,360)"/>
<path d="M0 0 C3 1 3 1 3 1 Z " fill="#171718" transform="translate(895,360)"/>
<path d="M0 0 C3 1 3 1 3 1 Z " fill="#161616" transform="translate(816,354)"/>
<path d="M0 0 C3 1 3 1 3 1 Z " fill="#181819" transform="translate(200,280)"/>
<path d="" fill="#161616" transform="translate(0,0)"/>
<path d="M0 0 C2 1 2 1 2 1 Z " fill="#181716" transform="translate(568,605)"/>
<path d="M0 0 C2 1 2 1 2 1 Z " fill="#141414" transform="translate(377,604)"/>
<path d="M0 0 C2 1 2 1 2 1 Z " fill="#191818" transform="translate(885,603)"/>
<path d="M0 0 C2 1 2 1 2 1 Z " fill="#171616" transform="translate(686,603)"/>
<path d="M0 0 C2 1 2 1 2 1 Z " fill="#151414" transform="translate(370,603)"/>
<path d="M0 0 C2 1 2 1 2 1 Z " fill="#161616" transform="translate(911,591)"/>
<path d="" fill="#0D0E0E" transform="translate(0,0)"/>
<path d="M0 0 C2 1 2 1 2 1 Z " fill="#121211" transform="translate(128,477)"/>
<path d="M0 0 C2 1 2 1 2 1 Z " fill="#131314" transform="translate(796,360)"/>
<path d="M0 0 C2 1 2 1 2 1 Z " fill="#161714" transform="translate(504,354)"/>
<path d="M0 0 C2 1 2 1 2 1 Z " fill="#111011" transform="translate(688,352)"/>
<path d="M0 0 C2 1 2 1 2 1 Z " fill="#0F0F0F" transform="translate(683,352)"/>
<path d="M0 0 C2 1 2 1 2 1 Z " fill="#141214" transform="translate(184,288)"/>
<path d="" fill="#1C1C1D" transform="translate(0,0)"/>
<path d="" fill="#696867" transform="translate(0,0)"/>
<path d="" fill="#6B6B6B" transform="translate(0,0)"/>
<path d="" fill="#676766" transform="translate(0,0)"/>
<path d="" fill="#6F706E" transform="translate(0,0)"/>
<path d="" fill="#6F7170" transform="translate(0,0)"/>
<path d="" fill="#131313" transform="translate(0,0)"/>
<path d="" fill="#121114" transform="translate(0,0)"/>
<path d="" fill="#101212" transform="translate(0,0)"/>
<path d="" fill="#121211" transform="translate(0,0)"/>
<path d="" fill="#171615" transform="translate(0,0)"/>
<path d="" fill="#1B1919" transform="translate(0,0)"/>
<path d="" fill="#161616" transform="translate(0,0)"/>
<path d="" fill="#161918" transform="translate(0,0)"/>
<path d="" fill="#171716" transform="translate(0,0)"/>
<path d="" fill="#151716" transform="translate(0,0)"/>
<path d="" fill="#131415" transform="translate(0,0)"/>
<path d="" fill="#191B19" transform="translate(0,0)"/>
<path d="" fill="#171816" transform="translate(0,0)"/>
<path d="" fill="#181B18" transform="translate(0,0)"/>
<path d="" fill="#151618" transform="translate(0,0)"/>
<path d="" fill="#161717" transform="translate(0,0)"/>
<path d="" fill="#646464" transform="translate(0,0)"/>
<path d="" fill="#151314" transform="translate(0,0)"/>
<path d="" fill="#161516" transform="translate(0,0)"/>
<path d="" fill="#181818" transform="translate(0,0)"/>
<path d="" fill="#171515" transform="translate(0,0)"/>
<path d="" fill="#131414" transform="translate(0,0)"/>
<path d="" fill="#171414" transform="translate(0,0)"/>
<path d="" fill="#161414" transform="translate(0,0)"/>
<path d="" fill="#191817" transform="translate(0,0)"/>
<path d="" fill="#161715" transform="translate(0,0)"/>
<path d="" fill="#191816" transform="translate(0,0)"/>
<path d="" fill="#191915" transform="translate(0,0)"/>
<path d="" fill="#181717" transform="translate(0,0)"/>
<path d="" fill="#171818" transform="translate(0,0)"/>
<path d="" fill="#171516" transform="translate(0,0)"/>
<path d="" fill="#1A1919" transform="translate(0,0)"/>
<path d="" fill="#181516" transform="translate(0,0)"/>
<path d="" fill="#161414" transform="translate(0,0)"/>
<path d="" fill="#181616" transform="translate(0,0)"/>
<path d="" fill="#151814" transform="translate(0,0)"/>
<path d="" fill="#1A1915" transform="translate(0,0)"/>
<path d="" fill="#151616" transform="translate(0,0)"/>
<path d="" fill="#171715" transform="translate(0,0)"/>
<path d="" fill="#1A1817" transform="translate(0,0)"/>
<path d="" fill="#171715" transform="translate(0,0)"/>
<path d="" fill="#151515" transform="translate(0,0)"/>
<path d="" fill="#171516" transform="translate(0,0)"/>
<path d="" fill="#151714" transform="translate(0,0)"/>
<path d="" fill="#1B1718" transform="translate(0,0)"/>
<path d="" fill="#181817" transform="translate(0,0)"/>
<path d="" fill="#191918" transform="translate(0,0)"/>
<path d="" fill="#181716" transform="translate(0,0)"/>
<path d="" fill="#171616" transform="translate(0,0)"/>
<path d="" fill="#171818" transform="translate(0,0)"/>
<path d="" fill="#181619" transform="translate(0,0)"/>
<path d="" fill="#131416" transform="translate(0,0)"/>
<path d="" fill="#101010" transform="translate(0,0)"/>
<path d="" fill="#121112" transform="translate(0,0)"/>
<path d="" fill="#121313" transform="translate(0,0)"/>
<path d="" fill="#161716" transform="translate(0,0)"/>
<path d="" fill="#131311" transform="translate(0,0)"/>
<path d="" fill="#121212" transform="translate(0,0)"/>
<path d="" fill="#100E0C" transform="translate(0,0)"/>
<path d="" fill="#1B1D1D" transform="translate(0,0)"/>
<path d="" fill="#111111" transform="translate(0,0)"/>
<path d="" fill="#1A1B19" transform="translate(0,0)"/>
<path d="" fill="#111212" transform="translate(0,0)"/>
<path d="" fill="#181817" transform="translate(0,0)"/>
<path d="" fill="#1A181A" transform="translate(0,0)"/>
<path d="" fill="#11110F" transform="translate(0,0)"/>
<path d="" fill="#121315" transform="translate(0,0)"/>
<path d="" fill="#111011" transform="translate(0,0)"/>
<path d="" fill="#141413" transform="translate(0,0)"/>
<path d="" fill="#0B080A" transform="translate(0,0)"/>
<path d="" fill="#0E0D0F" transform="translate(0,0)"/>
<path d="" fill="#0E0E0C" transform="translate(0,0)"/>
<path d="" fill="#131312" transform="translate(0,0)"/>
<path d="" fill="#121412" transform="translate(0,0)"/>
<path d="" fill="#131212" transform="translate(0,0)"/>
<path d="" fill="#18191B" transform="translate(0,0)"/>
<path d="" fill="#141417" transform="translate(0,0)"/>
<path d="" fill="#181818" transform="translate(0,0)"/>
<path d="" fill="#141514" transform="translate(0,0)"/>
<path d="" fill="#131413" transform="translate(0,0)"/>
<path d="" fill="#151512" transform="translate(0,0)"/>
<path d="" fill="#0B0A0B" transform="translate(0,0)"/>
<path d="" fill="#171215" transform="translate(0,0)"/>
<path d="" fill="#151515" transform="translate(0,0)"/>
<path d="" fill="#131214" transform="translate(0,0)"/>
<path d="" fill="#111213" transform="translate(0,0)"/>
<path d="" fill="#141314" transform="translate(0,0)"/>
<path d="" fill="#131214" transform="translate(0,0)"/>
<path d="" fill="#161414" transform="translate(0,0)"/>
<path d="" fill="#141514" transform="translate(0,0)"/>
<path d="" fill="#19191A" transform="translate(0,0)"/>
<path d="" fill="#151417" transform="translate(0,0)"/>
<path d="" fill="#0B0A0C" transform="translate(0,0)"/>
<path d="" fill="#171818" transform="translate(0,0)"/>
<path d="" fill="#060506" transform="translate(0,0)"/>
<path d="" fill="#181817" transform="translate(0,0)"/>
<path d="" fill="#0A0909" transform="translate(0,0)"/>
<path d="" fill="#202222" transform="translate(0,0)"/>
<path d="" fill="#101010" transform="translate(0,0)"/>
<path d="" fill="#0F0E0D" transform="translate(0,0)"/>
<path d="" fill="#181819" transform="translate(0,0)"/>
<path d="" fill="#1B1E1D" transform="translate(0,0)"/>
<path d="" fill="#1C1C1B" transform="translate(0,0)"/>
<path d="" fill="#0E0E0F" transform="translate(0,0)"/>
<path d="" fill="#121313" transform="translate(0,0)"/>
<path d="" fill="#0A0A08" transform="translate(0,0)"/>
<path d="" fill="#121413" transform="translate(0,0)"/>
<path d="" fill="#161715" transform="translate(0,0)"/>
<path d="" fill="#121313" transform="translate(0,0)"/>
<path d="" fill="#151617" transform="translate(0,0)"/>
<path d="" fill="#1A1A17" transform="translate(0,0)"/>
<path d="" fill="#151416" transform="translate(0,0)"/>
<path d="" fill="#171616" transform="translate(0,0)"/>
<path d="" fill="#100D0E" transform="translate(0,0)"/>
<path d="" fill="#060809" transform="translate(0,0)"/>
<path d="" fill="#080807" transform="translate(0,0)"/>
<path d="" fill="#181817" transform="translate(0,0)"/>
<path d="" fill="#181716" transform="translate(0,0)"/>
<path d="" fill="#0C0E0D" transform="translate(0,0)"/>
<path d="" fill="#161618" transform="translate(0,0)"/>
<path d="" fill="#0F0E0E" transform="translate(0,0)"/>
<path d="" fill="#161716" transform="translate(0,0)"/>
<path d="" fill="#151415" transform="translate(0,0)"/>
<path d="" fill="#161716" transform="translate(0,0)"/>
<path d="" fill="#151918" transform="translate(0,0)"/>
<path d="" fill="#181918" transform="translate(0,0)"/>
<path d="" fill="#141416" transform="translate(0,0)"/>
<path d="" fill="#0F0F0F" transform="translate(0,0)"/>
<path d="" fill="#5F6161" transform="translate(0,0)"/>
<path d="" fill="#0C070B" transform="translate(0,0)"/>
<path d="" fill="#161716" transform="translate(0,0)"/>
<path d="" fill="#131213" transform="translate(0,0)"/>
<path d="" fill="#141515" transform="translate(0,0)"/>
<path d="" fill="#131112" transform="translate(0,0)"/>
<path d="" fill="#130F0F" transform="translate(0,0)"/>
<path d="" fill="#171514" transform="translate(0,0)"/>
<path d="" fill="#181515" transform="translate(0,0)"/>
<path d="" fill="#161617" transform="translate(0,0)"/>
<path d="" fill="#101014" transform="translate(0,0)"/>
<path d="" fill="#1F201F" transform="translate(0,0)"/>
<path d="" fill="#131413" transform="translate(0,0)"/>
<path d="" fill="#161718" transform="translate(0,0)"/>
<path d="" fill="#181816" transform="translate(0,0)"/>
<path d="" fill="#191A19" transform="translate(0,0)"/>
<path d="" fill="#171813" transform="translate(0,0)"/>
<path d="" fill="#161716" transform="translate(0,0)"/>
<path d="" fill="#1C1C1C" transform="translate(0,0)"/>
<path d="" fill="#181B19" transform="translate(0,0)"/>
<path d="" fill="#1A1B1D" transform="translate(0,0)"/>
<path d="" fill="#1C1C1E" transform="translate(0,0)"/>
<path d="" fill="#1B1C1C" transform="translate(0,0)"/>
<path d="" fill="#1E1E1C" transform="translate(0,0)"/>
<path d="" fill="#1E1D1D" transform="translate(0,0)"/>
<path d="" fill="#1D1F1E" transform="translate(0,0)"/>
<path d="" fill="#1B181B" transform="translate(0,0)"/>
<path d="" fill="#7A7A7C" transform="translate(0,0)"/>
</svg>
